<svg aria-roledescription="er" viewBox="0 0 610.6288452148438 532" style="max-width: 610.629px; background-color: white;" xmlns:xlink="http://www.w3.org/1999/xlink" xmlns="http://www.w3.org/2000/svg" width="100%" id="mermaid-0"><style>#mermaid-0{font-family:"trebuchet ms",verdana,arial,sans-serif;font-size:16px;fill:#000000;}#mermaid-0 .error-icon{fill:#552222;}#mermaid-0 .error-text{fill:#552222;stroke:#552222;}#mermaid-0 .edge-thickness-normal{stroke-width:2px;}#mermaid-0 .edge-thickness-thick{stroke-width:3.5px;}#mermaid-0 .edge-pattern-solid{stroke-dasharray:0;}#mermaid-0 .edge-pattern-dashed{stroke-dasharray:3;}#mermaid-0 .edge-pattern-dotted{stroke-dasharray:2;}#mermaid-0 .marker{fill:#000000;stroke:#000000;}#mermaid-0 .marker.cross{stroke:#000000;}#mermaid-0 svg{font-family:"trebuchet ms",verdana,arial,sans-serif;font-size:16px;}#mermaid-0 .entityBox{fill:#cde498;stroke:#13540c;}#mermaid-0 .attributeBoxOdd{fill:#ffffff;stroke:#13540c;}#mermaid-0 .attributeBoxEven{fill:#f2f2f2;stroke:#13540c;}#mermaid-0 .relationshipLabelBox{fill:hsl(78.1578947368, 58.4615384615%, 84.5098039216%);opacity:0.7;background-color:hsl(78.1578947368, 58.4615384615%, 84.5098039216%);}#mermaid-0 .relationshipLabelBox rect{opacity:0.5;}#mermaid-0 .relationshipLine{stroke:#000000;}#mermaid-0 .entityTitleText{text-anchor:middle;font-size:18px;fill:#000000;}#mermaid-0 :root{--mermaid-font-family:"trebuchet ms",verdana,arial,sans-serif;}</style><g/><defs><marker orient="auto" markerHeight="18" markerWidth="18" refY="9" refX="0" id="ONLY_ONE_START"><path d="M9,0 L9,18 M15,0 L15,18" fill="none" stroke="gray"/></marker></defs><defs><marker orient="auto" markerHeight="18" markerWidth="18" refY="9" refX="18" id="ONLY_ONE_END"><path d="M3,0 L3,18 M9,0 L9,18" fill="none" stroke="gray"/></marker></defs><defs><marker orient="auto" markerHeight="18" markerWidth="30" refY="9" refX="0" id="ZERO_OR_ONE_START"><circle r="6" cy="9" cx="21" fill="white" stroke="gray"/><path d="M9,0 L9,18" fill="none" stroke="gray"/></marker></defs><defs><marker orient="auto" markerHeight="18" markerWidth="30" refY="9" refX="30" id="ZERO_OR_ONE_END"><circle r="6" cy="9" cx="9" fill="white" stroke="gray"/><path d="M21,0 L21,18" fill="none" stroke="gray"/></marker></defs><defs><marker orient="auto" markerHeight="36" markerWidth="45" refY="18" refX="18" id="ONE_OR_MORE_START"><path d="M0,18 Q 18,0 36,18 Q 18,36 0,18 M42,9 L42,27" fill="none" stroke="gray"/></marker></defs><defs><marker orient="auto" markerHeight="36" markerWidth="45" refY="18" refX="27" id="ONE_OR_MORE_END"><path d="M3,9 L3,27 M9,18 Q27,0 45,18 Q27,36 9,18" fill="none" stroke="gray"/></marker></defs><defs><marker orient="auto" markerHeight="36" markerWidth="57" refY="18" refX="18" id="ZERO_OR_MORE_START"><circle r="6" cy="18" cx="48" fill="white" stroke="gray"/><path d="M0,18 Q18,0 36,18 Q18,36 0,18" fill="none" stroke="gray"/></marker></defs><defs><marker orient="auto" markerHeight="36" markerWidth="57" refY="18" refX="39" id="ZERO_OR_MORE_END"><circle r="6" cy="18" cx="9" fill="white" stroke="gray"/><path d="M21,18 Q39,0 57,18 Q39,36 21,18" fill="none" stroke="gray"/></marker></defs><path style="stroke: gray; fill: none;" marker-start="url(#ZERO_OR_MORE_START)" marker-end="url(#ONLY_ONE_END)" d="M88.8590087890625,278L88.8590087890625,286.3333333333333C88.8590087890625,294.6666666666667,88.8590087890625,311.3333333333333,126.44768905639648,334.6055548830393C164.03636932373047,357.8777764327453,239.21372985839844,387.75555286549064,276.8024101257324,402.69444108186326L314.3910903930664,417.63332929823594" class="er relationshipLine"/><path style="stroke: gray; fill: none;" marker-start="url(#ZERO_OR_MORE_START)" marker-end="url(#ONLY_ONE_END)" d="M323.7066650390625,267L323.7066650390625,277.1666666666667C323.7066650390625,287.3333333333333,323.7066650390625,307.6666666666667,327.94765037688774,326.1666666666667C332.188635714713,344.6666666666667,340.6706063903635,361.3333333333333,344.91159172818874,369.6666666666667L349.152577066014,378" class="er relationshipLine"/><path style="stroke: gray; fill: none;" marker-start="url(#ZERO_OR_MORE_START)" marker-end="url(#ONLY_ONE_END)" d="M148.0465087890625,66.7880089307255L202.9789555867513,78.6566741089379C257.9114023844401,90.52533928715032,367.7762959798177,114.26266964357517,422.70874277750653,141.9646681551209C477.6411895751953,169.66666666666666,477.6411895751953,201.33333333333334,477.6411895751953,233C477.6411895751953,264.6666666666667,477.6411895751953,296.3333333333333,470.918177438937,320.5C464.19516530267873,344.6666666666667,450.7491410301621,361.3333333333333,444.02612889390383,369.6666666666667L437.30311675764557,378" class="er relationshipLine"/><path style="stroke: gray; fill: none;" marker-start="url(#ZERO_OR_MORE_START)" marker-end="url(#ONLY_ONE_END)" d="M71.0604384286063,88L66.69804373241605,96.33333333333333C62.33564903622582,104.66666666666667,53.61085964384532,121.33333333333333,53.105740257970666,138C52.60062087209601,154.66666666666666,60.31517149272718,171.33333333333334,64.17244680304276,179.66666666666666L68.02972211335835,188" class="er relationshipLine"/><path style="stroke: gray; fill: none;" marker-start="url(#ZERO_OR_MORE_START)" marker-end="url(#ONLY_ONE_END)" d="M393.2363562810989,77L423.9704951634483,87.16666666666667C454.7046340457977,97.33333333333333,516.1729118104964,117.66666666666667,546.9070506928459,143.66666666666666C577.6411895751953,169.66666666666666,577.6411895751953,201.33333333333334,577.6411895751953,233C577.6411895751953,264.6666666666667,577.6411895751953,296.3333333333333,556.719175974528,324.7591964288506C535.7971623738607,353.1850595243679,493.95313517252606,378.3701190487357,473.0311215718587,390.9626488109197L452.1091079711914,403.5551785731036" class="er relationshipLine"/><path style="stroke: gray; fill: none;" marker-start="url(#ZERO_OR_MORE_START)" marker-end="url(#ONLY_ONE_END)" d="M323.7066650390625,77L323.7066650390625,87.16666666666667C323.7066650390625,97.33333333333333,323.7066650390625,117.66666666666667,323.7066650390625,138C323.7066650390625,158.33333333333334,323.7066650390625,178.66666666666666,323.7066650390625,188.83333333333334L323.7066650390625,199" class="er relationshipLine"/><path style="stroke: gray; fill: none;" marker-start="url(#ZERO_OR_MORE_START)" marker-end="url(#ONLY_ONE_END)" d="M279.5146932147798,77L259.9805607417273,87.16666666666667C240.44642826867482,97.33333333333333,201.3781633225698,117.66666666666667,175.40097035939434,136.16666666666666C149.4237773962188,154.66666666666666,136.5376564159728,171.33333333333334,130.0945959258498,179.66666666666666L123.65153543572677,188" class="er relationshipLine"/><g transform="translate(314.3910903930664,378 )" id="entity-users-9c776dbf-e96e-4984-8563-a63393e02832"><rect height="134" width="137.718017578125" y="0" x="0" class="er entityBox"/><text style="dominant-baseline: middle; text-anchor: middle; font-size: 12px;" transform="translate(68.8590087890625,12)" y="0" x="0" id="text-entity-users-9c776dbf-e96e-4984-8563-a63393e02832" class="er entityLabel">users</text><rect height="22" width="54.095550537109375" y="24" x="0" class="er attributeBoxOdd"/><text style="dominant-baseline: middle; font-size: 10.2px;" transform="translate(5,35)" y="0" x="0" id="text-entity-users-9c776dbf-e96e-4984-8563-a63393e02832-attr-1-type" class="er entityLabel">String</text><rect height="22" width="60.934783935546875" y="24" x="54.095550537109375" class="er attributeBoxOdd"/><text style="dominant-baseline: middle; font-size: 10.2px;" transform="translate(59.095550537109375,35)" y="0" x="0" id="text-entity-users-9c776dbf-e96e-4984-8563-a63393e02832-attr-1-name" class="er entityLabel">id</text><rect height="22" width="22.68768310546875" y="24" x="115.03033447265625" class="er attributeBoxOdd"/><text style="dominant-baseline: middle; font-size: 10.2px;" transform="translate(120.03033447265625,35)" y="0" x="0" id="text-entity-users-9c776dbf-e96e-4984-8563-a63393e02832-attr-1-key" class="er entityLabel">PK</text><rect height="22" width="54.095550537109375" y="46" x="0" class="er attributeBoxEven"/><text style="dominant-baseline: middle; font-size: 10.2px;" transform="translate(5,57)" y="0" x="0" id="text-entity-users-9c776dbf-e96e-4984-8563-a63393e02832-attr-2-type" class="er entityLabel">String</text><rect height="22" width="60.934783935546875" y="46" x="54.095550537109375" class="er attributeBoxEven"/><text style="dominant-baseline: middle; font-size: 10.2px;" transform="translate(59.095550537109375,57)" y="0" x="0" id="text-entity-users-9c776dbf-e96e-4984-8563-a63393e02832-attr-2-name" class="er entityLabel">email</text><rect height="22" width="22.68768310546875" y="46" x="115.03033447265625" class="er attributeBoxEven"/><text style="dominant-baseline: middle; font-size: 10.2px;" transform="translate(120.03033447265625,57)" y="0" x="0" id="text-entity-users-9c776dbf-e96e-4984-8563-a63393e02832-attr-2-key" class="er entityLabel"/><rect height="22" width="54.095550537109375" y="68" x="0" class="er attributeBoxOdd"/><text style="dominant-baseline: middle; font-size: 10.2px;" transform="translate(5,79)" y="0" x="0" id="text-entity-users-9c776dbf-e96e-4984-8563-a63393e02832-attr-3-type" class="er entityLabel">String</text><rect height="22" width="60.934783935546875" y="68" x="54.095550537109375" class="er attributeBoxOdd"/><text style="dominant-baseline: middle; font-size: 10.2px;" transform="translate(59.095550537109375,79)" y="0" x="0" id="text-entity-users-9c776dbf-e96e-4984-8563-a63393e02832-attr-3-name" class="er entityLabel">nickname</text><rect height="22" width="22.68768310546875" y="68" x="115.03033447265625" class="er attributeBoxOdd"/><text style="dominant-baseline: middle; font-size: 10.2px;" transform="translate(120.03033447265625,79)" y="0" x="0" id="text-entity-users-9c776dbf-e96e-4984-8563-a63393e02832-attr-3-key" class="er entityLabel"/><rect height="22" width="54.095550537109375" y="90" x="0" class="er attributeBoxEven"/><text style="dominant-baseline: middle; font-size: 10.2px;" transform="translate(5,101)" y="0" x="0" id="text-entity-users-9c776dbf-e96e-4984-8563-a63393e02832-attr-4-type" class="er entityLabel">String</text><rect height="22" width="60.934783935546875" y="90" x="54.095550537109375" class="er attributeBoxEven"/><text style="dominant-baseline: middle; font-size: 10.2px;" transform="translate(59.095550537109375,101)" y="0" x="0" id="text-entity-users-9c776dbf-e96e-4984-8563-a63393e02832-attr-4-name" class="er entityLabel">password</text><rect height="22" width="22.68768310546875" y="90" x="115.03033447265625" class="er attributeBoxEven"/><text style="dominant-baseline: middle; font-size: 10.2px;" transform="translate(120.03033447265625,101)" y="0" x="0" id="text-entity-users-9c776dbf-e96e-4984-8563-a63393e02832-attr-4-key" class="er entityLabel"/><rect height="22" width="54.095550537109375" y="112" x="0" class="er attributeBoxOdd"/><text style="dominant-baseline: middle; font-size: 10.2px;" transform="translate(5,123)" y="0" x="0" id="text-entity-users-9c776dbf-e96e-4984-8563-a63393e02832-attr-5-type" class="er entityLabel">DateTime</text><rect height="22" width="60.934783935546875" y="112" x="54.095550537109375" class="er attributeBoxOdd"/><text style="dominant-baseline: middle; font-size: 10.2px;" transform="translate(59.095550537109375,123)" y="0" x="0" id="text-entity-users-9c776dbf-e96e-4984-8563-a63393e02832-attr-5-name" class="er entityLabel">created_at</text><rect height="22" width="22.68768310546875" y="112" x="115.03033447265625" class="er attributeBoxOdd"/><text style="dominant-baseline: middle; font-size: 10.2px;" transform="translate(120.03033447265625,123)" y="0" x="0" id="text-entity-users-9c776dbf-e96e-4984-8563-a63393e02832-attr-5-key" class="er entityLabel"/></g><g transform="translate(20,188 )" id="entity-habits-55bb5ff4-09a4-4179-b9b0-21239f57575b"><rect height="90" width="137.718017578125" y="0" x="0" class="er entityBox"/><text style="dominant-baseline: middle; text-anchor: middle; font-size: 12px;" transform="translate(68.8590087890625,12)" y="0" x="0" id="text-entity-habits-55bb5ff4-09a4-4179-b9b0-21239f57575b" class="er entityLabel">habits</text><rect height="22" width="54.095550537109375" y="24" x="0" class="er attributeBoxOdd"/><text style="dominant-baseline: middle; font-size: 10.2px;" transform="translate(5,35)" y="0" x="0" id="text-entity-habits-55bb5ff4-09a4-4179-b9b0-21239f57575b-attr-1-type" class="er entityLabel">String</text><rect height="22" width="60.934783935546875" y="24" x="54.095550537109375" class="er attributeBoxOdd"/><text style="dominant-baseline: middle; font-size: 10.2px;" transform="translate(59.095550537109375,35)" y="0" x="0" id="text-entity-habits-55bb5ff4-09a4-4179-b9b0-21239f57575b-attr-1-name" class="er entityLabel">id</text><rect height="22" width="22.68768310546875" y="24" x="115.03033447265625" class="er attributeBoxOdd"/><text style="dominant-baseline: middle; font-size: 10.2px;" transform="translate(120.03033447265625,35)" y="0" x="0" id="text-entity-habits-55bb5ff4-09a4-4179-b9b0-21239f57575b-attr-1-key" class="er entityLabel">PK</text><rect height="22" width="54.095550537109375" y="46" x="0" class="er attributeBoxEven"/><text style="dominant-baseline: middle; font-size: 10.2px;" transform="translate(5,57)" y="0" x="0" id="text-entity-habits-55bb5ff4-09a4-4179-b9b0-21239f57575b-attr-2-type" class="er entityLabel">String</text><rect height="22" width="60.934783935546875" y="46" x="54.095550537109375" class="er attributeBoxEven"/><text style="dominant-baseline: middle; font-size: 10.2px;" transform="translate(59.095550537109375,57)" y="0" x="0" id="text-entity-habits-55bb5ff4-09a4-4179-b9b0-21239f57575b-attr-2-name" class="er entityLabel">title</text><rect height="22" width="22.68768310546875" y="46" x="115.03033447265625" class="er attributeBoxEven"/><text style="dominant-baseline: middle; font-size: 10.2px;" transform="translate(120.03033447265625,57)" y="0" x="0" id="text-entity-habits-55bb5ff4-09a4-4179-b9b0-21239f57575b-attr-2-key" class="er entityLabel"/><rect height="22" width="54.095550537109375" y="68" x="0" class="er attributeBoxOdd"/><text style="dominant-baseline: middle; font-size: 10.2px;" transform="translate(5,79)" y="0" x="0" id="text-entity-habits-55bb5ff4-09a4-4179-b9b0-21239f57575b-attr-3-type" class="er entityLabel">DateTime</text><rect height="22" width="60.934783935546875" y="68" x="54.095550537109375" class="er attributeBoxOdd"/><text style="dominant-baseline: middle; font-size: 10.2px;" transform="translate(59.095550537109375,79)" y="0" x="0" id="text-entity-habits-55bb5ff4-09a4-4179-b9b0-21239f57575b-attr-3-name" class="er entityLabel">created_at</text><rect height="22" width="22.68768310546875" y="68" x="115.03033447265625" class="er attributeBoxOdd"/><text style="dominant-baseline: middle; font-size: 10.2px;" transform="translate(120.03033447265625,79)" y="0" x="0" id="text-entity-habits-55bb5ff4-09a4-4179-b9b0-21239f57575b-attr-3-key" class="er entityLabel"/></g><g transform="translate(269.7721405029297,199 )" id="entity-days-777290a5-4322-42b1-b642-2451942dcdb0"><rect height="68" width="107.86904907226562" y="0" x="0" class="er entityBox"/><text style="dominant-baseline: middle; text-anchor: middle; font-size: 12px;" transform="translate(53.93452453613281,12)" y="0" x="0" id="text-entity-days-777290a5-4322-42b1-b642-2451942dcdb0" class="er entityLabel">days</text><rect height="22" width="54.095550537109375" y="24" x="0" class="er attributeBoxOdd"/><text style="dominant-baseline: middle; font-size: 10.2px;" transform="translate(5,35)" y="0" x="0" id="text-entity-days-777290a5-4322-42b1-b642-2451942dcdb0-attr-1-type" class="er entityLabel">String</text><rect height="22" width="31.0858154296875" y="24" x="54.095550537109375" class="er attributeBoxOdd"/><text style="dominant-baseline: middle; font-size: 10.2px;" transform="translate(59.095550537109375,35)" y="0" x="0" id="text-entity-days-777290a5-4322-42b1-b642-2451942dcdb0-attr-1-name" class="er entityLabel">id</text><rect height="22" width="22.68768310546875" y="24" x="85.18136596679688" class="er attributeBoxOdd"/><text style="dominant-baseline: middle; font-size: 10.2px;" transform="translate(90.18136596679688,35)" y="0" x="0" id="text-entity-days-777290a5-4322-42b1-b642-2451942dcdb0-attr-1-key" class="er entityLabel">PK</text><rect height="22" width="54.095550537109375" y="46" x="0" class="er attributeBoxEven"/><text style="dominant-baseline: middle; font-size: 10.2px;" transform="translate(5,57)" y="0" x="0" id="text-entity-days-777290a5-4322-42b1-b642-2451942dcdb0-attr-2-type" class="er entityLabel">DateTime</text><rect height="22" width="31.0858154296875" y="46" x="54.095550537109375" class="er attributeBoxEven"/><text style="dominant-baseline: middle; font-size: 10.2px;" transform="translate(59.095550537109375,57)" y="0" x="0" id="text-entity-days-777290a5-4322-42b1-b642-2451942dcdb0-attr-2-name" class="er entityLabel">date</text><rect height="22" width="22.68768310546875" y="46" x="85.18136596679688" class="er attributeBoxEven"/><text style="dominant-baseline: middle; font-size: 10.2px;" transform="translate(90.18136596679688,57)" y="0" x="0" id="text-entity-days-777290a5-4322-42b1-b642-2451942dcdb0-attr-2-key" class="er entityLabel"/></g><g transform="translate(29.6715087890625,20 )" id="entity-habitweekday-fee4903c-baa8-4b31-aa82-228eea82f63e"><rect height="68" width="118.375" y="0" x="0" class="er entityBox"/><text style="dominant-baseline: middle; text-anchor: middle; font-size: 12px;" transform="translate(59.1875,12)" y="0" x="0" id="text-entity-habitweekday-fee4903c-baa8-4b31-aa82-228eea82f63e" class="er entityLabel">habit_week_day</text><rect height="22" width="37.74244689941406" y="24" x="0" class="er attributeBoxOdd"/><text style="dominant-baseline: middle; font-size: 10.2px;" transform="translate(5,35)" y="0" x="0" id="text-entity-habitweekday-fee4903c-baa8-4b31-aa82-228eea82f63e-attr-1-type" class="er entityLabel">String</text><rect height="22" width="57.598480224609375" y="24" x="37.74244689941406" class="er attributeBoxOdd"/><text style="dominant-baseline: middle; font-size: 10.2px;" transform="translate(42.74244689941406,35)" y="0" x="0" id="text-entity-habitweekday-fee4903c-baa8-4b31-aa82-228eea82f63e-attr-1-name" class="er entityLabel">id</text><rect height="22" width="23.034072875976562" y="24" x="95.34092712402344" class="er attributeBoxOdd"/><text style="dominant-baseline: middle; font-size: 10.2px;" transform="translate(100.34092712402344,35)" y="0" x="0" id="text-entity-habitweekday-fee4903c-baa8-4b31-aa82-228eea82f63e-attr-1-key" class="er entityLabel">PK</text><rect height="22" width="37.74244689941406" y="46" x="0" class="er attributeBoxEven"/><text style="dominant-baseline: middle; font-size: 10.2px;" transform="translate(5,57)" y="0" x="0" id="text-entity-habitweekday-fee4903c-baa8-4b31-aa82-228eea82f63e-attr-2-type" class="er entityLabel">Int</text><rect height="22" width="57.598480224609375" y="46" x="37.74244689941406" class="er attributeBoxEven"/><text style="dominant-baseline: middle; font-size: 10.2px;" transform="translate(42.74244689941406,57)" y="0" x="0" id="text-entity-habitweekday-fee4903c-baa8-4b31-aa82-228eea82f63e-attr-2-name" class="er entityLabel">week_day</text><rect height="22" width="23.034072875976562" y="46" x="95.34092712402344" class="er attributeBoxEven"/><text style="dominant-baseline: middle; font-size: 10.2px;" transform="translate(100.34092712402344,57)" y="0" x="0" id="text-entity-habitweekday-fee4903c-baa8-4b31-aa82-228eea82f63e-attr-2-key" class="er entityLabel"/></g><g transform="translate(248.0465087890625,31 )" id="entity-completeddayhabits-58641c36-6cef-4765-954f-bd86dc9f46e9"><rect height="46" width="151.3203125" y="0" x="0" class="er entityBox"/><text style="dominant-baseline: middle; text-anchor: middle; font-size: 12px;" transform="translate(75.66015625,12)" y="0" x="0" id="text-entity-completeddayhabits-58641c36-6cef-4765-954f-bd86dc9f46e9" class="er entityLabel">completed_day_habits</text><rect height="22" width="61.50538635253906" y="24" x="0" class="er attributeBoxOdd"/><text style="dominant-baseline: middle; font-size: 10.2px;" transform="translate(5,35)" y="0" x="0" id="text-entity-completeddayhabits-58641c36-6cef-4765-954f-bd86dc9f46e9-attr-1-type" class="er entityLabel">String</text><rect height="22" width="43.017913818359375" y="24" x="61.50538635253906" class="er attributeBoxOdd"/><text style="dominant-baseline: middle; font-size: 10.2px;" transform="translate(66.50538635253906,35)" y="0" x="0" id="text-entity-completeddayhabits-58641c36-6cef-4765-954f-bd86dc9f46e9-attr-1-name" class="er entityLabel">id</text><rect height="22" width="46.79701232910156" y="24" x="104.52330017089844" class="er attributeBoxOdd"/><text style="dominant-baseline: middle; font-size: 10.2px;" transform="translate(109.52330017089844,35)" y="0" x="0" id="text-entity-completeddayhabits-58641c36-6cef-4765-954f-bd86dc9f46e9-attr-1-key" class="er entityLabel">PK</text></g><rect height="14" width="25.18359375" y="357.7691955566406" x="173.18121337890625" class="er relationshipLabelBox"/><text style="text-anchor: middle; dominant-baseline: middle; font-size: 12px;" y="364.7691955566406" x="185.77301025390625" id="rel1" class="er relationshipLabel">User</text><rect height="14" width="25.18359375" y="317.5597839355469" x="314.9991760253906" class="er relationshipLabelBox"/><text style="text-anchor: middle; dominant-baseline: middle; font-size: 12px;" y="324.5597839355469" x="327.5909729003906" id="rel2" class="er relationshipLabel">User</text><rect height="14" width="25.18359375" y="131.541748046875" x="403.0119323730469" class="er relationshipLabelBox"/><text style="text-anchor: middle; dominant-baseline: middle; font-size: 12px;" y="138.541748046875" x="415.6037292480469" id="rel3" class="er relationshipLabel">User</text><rect height="14" width="27.96875" y="130.53927612304688" x="39.13749313354492" class="er relationshipLabelBox"/><text style="text-anchor: middle; dominant-baseline: middle; font-size: 12px;" y="137.53927612304688" x="53.12186813354492" id="rel4" class="er relationshipLabel">habit</text><rect height="14" width="25.18359375" y="206.5419158935547" x="564.7831420898438" class="er relationshipLabelBox"/><text style="text-anchor: middle; dominant-baseline: middle; font-size: 12px;" y="213.5419158935547" x="577.3749389648438" id="rel5" class="er relationshipLabel">User</text><rect height="14" width="19.990234375" y="131" x="313.7115478515625" class="er relationshipLabelBox"/><text style="text-anchor: middle; dominant-baseline: middle; font-size: 12px;" y="138" x="323.7066650390625" id="rel6" class="er relationshipLabel">day</text><rect height="14.000007629394531" width="27.96875" y="116.44313430786133" x="180.72006225585938" class="er relationshipLabelBox"/><text style="text-anchor: middle; dominant-baseline: middle; font-size: 12px;" y="123.4431381225586" x="194.70443725585938" id="rel7" class="er relationshipLabel">habit</text></svg>