<svg aria-roledescription="er" viewBox="0 0 481.942626953125 298" style="max-width: 481.943px; background-color: white;" xmlns:xlink="http://www.w3.org/1999/xlink" xmlns="http://www.w3.org/2000/svg" width="100%" id="mermaid-0"><style>#mermaid-0{font-family:"trebuchet ms",verdana,arial,sans-serif;font-size:16px;fill:#000000;}#mermaid-0 .error-icon{fill:#552222;}#mermaid-0 .error-text{fill:#552222;stroke:#552222;}#mermaid-0 .edge-thickness-normal{stroke-width:2px;}#mermaid-0 .edge-thickness-thick{stroke-width:3.5px;}#mermaid-0 .edge-pattern-solid{stroke-dasharray:0;}#mermaid-0 .edge-pattern-dashed{stroke-dasharray:3;}#mermaid-0 .edge-pattern-dotted{stroke-dasharray:2;}#mermaid-0 .marker{fill:#000000;stroke:#000000;}#mermaid-0 .marker.cross{stroke:#000000;}#mermaid-0 svg{font-family:"trebuchet ms",verdana,arial,sans-serif;font-size:16px;}#mermaid-0 .entityBox{fill:#cde498;stroke:#13540c;}#mermaid-0 .attributeBoxOdd{fill:#ffffff;stroke:#13540c;}#mermaid-0 .attributeBoxEven{fill:#f2f2f2;stroke:#13540c;}#mermaid-0 .relationshipLabelBox{fill:hsl(78.1578947368, 58.4615384615%, 84.5098039216%);opacity:0.7;background-color:hsl(78.1578947368, 58.4615384615%, 84.5098039216%);}#mermaid-0 .relationshipLabelBox rect{opacity:0.5;}#mermaid-0 .relationshipLine{stroke:#000000;}#mermaid-0 .entityTitleText{text-anchor:middle;font-size:18px;fill:#000000;}#mermaid-0 :root{--mermaid-font-family:"trebuchet ms",verdana,arial,sans-serif;}</style><g/><defs><marker orient="auto" markerHeight="18" markerWidth="18" refY="9" refX="0" id="ONLY_ONE_START"><path d="M9,0 L9,18 M15,0 L15,18" fill="none" stroke="gray"/></marker></defs><defs><marker orient="auto" markerHeight="18" markerWidth="18" refY="9" refX="18" id="ONLY_ONE_END"><path d="M3,0 L3,18 M9,0 L9,18" fill="none" stroke="gray"/></marker></defs><defs><marker orient="auto" markerHeight="18" markerWidth="30" refY="9" refX="0" id="ZERO_OR_ONE_START"><circle r="6" cy="9" cx="21" fill="white" stroke="gray"/><path d="M9,0 L9,18" fill="none" stroke="gray"/></marker></defs><defs><marker orient="auto" markerHeight="18" markerWidth="30" refY="9" refX="30" id="ZERO_OR_ONE_END"><circle r="6" cy="9" cx="9" fill="white" stroke="gray"/><path d="M21,0 L21,18" fill="none" stroke="gray"/></marker></defs><defs><marker orient="auto" markerHeight="36" markerWidth="45" refY="18" refX="18" id="ONE_OR_MORE_START"><path d="M0,18 Q 18,0 36,18 Q 18,36 0,18 M42,9 L42,27" fill="none" stroke="gray"/></marker></defs><defs><marker orient="auto" markerHeight="36" markerWidth="45" refY="18" refX="27" id="ONE_OR_MORE_END"><path d="M3,9 L3,27 M9,18 Q27,0 45,18 Q27,36 9,18" fill="none" stroke="gray"/></marker></defs><defs><marker orient="auto" markerHeight="36" markerWidth="57" refY="18" refX="18" id="ZERO_OR_MORE_START"><circle r="6" cy="18" cx="48" fill="white" stroke="gray"/><path d="M0,18 Q18,0 36,18 Q18,36 0,18" fill="none" stroke="gray"/></marker></defs><defs><marker orient="auto" markerHeight="36" markerWidth="57" refY="18" refX="39" id="ZERO_OR_MORE_END"><circle r="6" cy="18" cx="9" fill="white" stroke="gray"/><path d="M21,18 Q39,0 57,18 Q39,36 21,18" fill="none" stroke="gray"/></marker></defs><path style="stroke: gray; fill: none;" marker-start="url(#ZERO_OR_MORE_START)" marker-end="url(#ONLY_ONE_END)" d="M79.1875,88L79.1875,96.33333333333333C79.1875,104.66666666666667,79.1875,121.33333333333333,83.5734649122807,138C87.95942982456141,154.66666666666666,96.73135964912281,171.33333333333334,101.1173245614035,179.66666666666666L105.5032894736842,188" class="er relationshipLine"/><path style="stroke: gray; fill: none;" marker-start="url(#ZERO_OR_MORE_START)" marker-end="url(#ONLY_ONE_END)" d="M371.69857097807386,77L377.7501582796611,87.16666666666667C383.80174558124844,97.33333333333333,395.904920184423,117.66666666666667,401.95650748601037,138C408.00809478759766,158.33333333333334,408.00809478759766,178.66666666666666,408.00809478759766,188.83333333333334L408.00809478759766,199" class="er relationshipLine"/><path style="stroke: gray; fill: none;" marker-start="url(#ZERO_OR_MORE_START)" marker-end="url(#ONLY_ONE_END)" d="M327.50659915379117,77L314.024053982326,87.16666666666667C300.54150881086076,97.33333333333333,273.5764184679304,117.66666666666667,249.7935374960266,136.16666666666666C226.01065652412282,154.66666666666666,205.40998492324562,171.33333333333334,195.109649122807,179.66666666666666L184.8093133223684,188" class="er relationshipLine"/><g transform="translate(60.3284912109375,188 )" id="entity-habits-7eeac8e3-d6a2-4c40-9d05-cd59c22dce77"><rect height="90" width="137.718017578125" y="0" x="0" class="er entityBox"/><text style="dominant-baseline: middle; text-anchor: middle; font-size: 12px;" transform="translate(68.8590087890625,12)" y="0" x="0" id="text-entity-habits-7eeac8e3-d6a2-4c40-9d05-cd59c22dce77" class="er entityLabel">habits</text><rect height="22" width="54.095550537109375" y="24" x="0" class="er attributeBoxOdd"/><text style="dominant-baseline: middle; font-size: 10.2px;" transform="translate(5,35)" y="0" x="0" id="text-entity-habits-7eeac8e3-d6a2-4c40-9d05-cd59c22dce77-attr-1-type" class="er entityLabel">String</text><rect height="22" width="60.934783935546875" y="24" x="54.095550537109375" class="er attributeBoxOdd"/><text style="dominant-baseline: middle; font-size: 10.2px;" transform="translate(59.095550537109375,35)" y="0" x="0" id="text-entity-habits-7eeac8e3-d6a2-4c40-9d05-cd59c22dce77-attr-1-name" class="er entityLabel">id</text><rect height="22" width="22.68768310546875" y="24" x="115.03033447265625" class="er attributeBoxOdd"/><text style="dominant-baseline: middle; font-size: 10.2px;" transform="translate(120.03033447265625,35)" y="0" x="0" id="text-entity-habits-7eeac8e3-d6a2-4c40-9d05-cd59c22dce77-attr-1-key" class="er entityLabel">PK</text><rect height="22" width="54.095550537109375" y="46" x="0" class="er attributeBoxEven"/><text style="dominant-baseline: middle; font-size: 10.2px;" transform="translate(5,57)" y="0" x="0" id="text-entity-habits-7eeac8e3-d6a2-4c40-9d05-cd59c22dce77-attr-2-type" class="er entityLabel">String</text><rect height="22" width="60.934783935546875" y="46" x="54.095550537109375" class="er attributeBoxEven"/><text style="dominant-baseline: middle; font-size: 10.2px;" transform="translate(59.095550537109375,57)" y="0" x="0" id="text-entity-habits-7eeac8e3-d6a2-4c40-9d05-cd59c22dce77-attr-2-name" class="er entityLabel">title</text><rect height="22" width="22.68768310546875" y="46" x="115.03033447265625" class="er attributeBoxEven"/><text style="dominant-baseline: middle; font-size: 10.2px;" transform="translate(120.03033447265625,57)" y="0" x="0" id="text-entity-habits-7eeac8e3-d6a2-4c40-9d05-cd59c22dce77-attr-2-key" class="er entityLabel"/><rect height="22" width="54.095550537109375" y="68" x="0" class="er attributeBoxOdd"/><text style="dominant-baseline: middle; font-size: 10.2px;" transform="translate(5,79)" y="0" x="0" id="text-entity-habits-7eeac8e3-d6a2-4c40-9d05-cd59c22dce77-attr-3-type" class="er entityLabel">DateTime</text><rect height="22" width="60.934783935546875" y="68" x="54.095550537109375" class="er attributeBoxOdd"/><text style="dominant-baseline: middle; font-size: 10.2px;" transform="translate(59.095550537109375,79)" y="0" x="0" id="text-entity-habits-7eeac8e3-d6a2-4c40-9d05-cd59c22dce77-attr-3-name" class="er entityLabel">created_at</text><rect height="22" width="22.68768310546875" y="68" x="115.03033447265625" class="er attributeBoxOdd"/><text style="dominant-baseline: middle; font-size: 10.2px;" transform="translate(120.03033447265625,79)" y="0" x="0" id="text-entity-habits-7eeac8e3-d6a2-4c40-9d05-cd59c22dce77-attr-3-key" class="er entityLabel"/></g><g transform="translate(354.07357025146484,199 )" id="entity-days-b115055c-9b4f-40f4-9cd0-995cf493ae7e"><rect height="68" width="107.86904907226562" y="0" x="0" class="er entityBox"/><text style="dominant-baseline: middle; text-anchor: middle; font-size: 12px;" transform="translate(53.93452453613281,12)" y="0" x="0" id="text-entity-days-b115055c-9b4f-40f4-9cd0-995cf493ae7e" class="er entityLabel">days</text><rect height="22" width="54.095550537109375" y="24" x="0" class="er attributeBoxOdd"/><text style="dominant-baseline: middle; font-size: 10.2px;" transform="translate(5,35)" y="0" x="0" id="text-entity-days-b115055c-9b4f-40f4-9cd0-995cf493ae7e-attr-1-type" class="er entityLabel">String</text><rect height="22" width="31.0858154296875" y="24" x="54.095550537109375" class="er attributeBoxOdd"/><text style="dominant-baseline: middle; font-size: 10.2px;" transform="translate(59.095550537109375,35)" y="0" x="0" id="text-entity-days-b115055c-9b4f-40f4-9cd0-995cf493ae7e-attr-1-name" class="er entityLabel">id</text><rect height="22" width="22.68768310546875" y="24" x="85.18136596679688" class="er attributeBoxOdd"/><text style="dominant-baseline: middle; font-size: 10.2px;" transform="translate(90.18136596679688,35)" y="0" x="0" id="text-entity-days-b115055c-9b4f-40f4-9cd0-995cf493ae7e-attr-1-key" class="er entityLabel">PK</text><rect height="22" width="54.095550537109375" y="46" x="0" class="er attributeBoxEven"/><text style="dominant-baseline: middle; font-size: 10.2px;" transform="translate(5,57)" y="0" x="0" id="text-entity-days-b115055c-9b4f-40f4-9cd0-995cf493ae7e-attr-2-type" class="er entityLabel">DateTime</text><rect height="22" width="31.0858154296875" y="46" x="54.095550537109375" class="er attributeBoxEven"/><text style="dominant-baseline: middle; font-size: 10.2px;" transform="translate(59.095550537109375,57)" y="0" x="0" id="text-entity-days-b115055c-9b4f-40f4-9cd0-995cf493ae7e-attr-2-name" class="er entityLabel">date</text><rect height="22" width="22.68768310546875" y="46" x="85.18136596679688" class="er attributeBoxEven"/><text style="dominant-baseline: middle; font-size: 10.2px;" transform="translate(90.18136596679688,57)" y="0" x="0" id="text-entity-days-b115055c-9b4f-40f4-9cd0-995cf493ae7e-attr-2-key" class="er entityLabel"/></g><g transform="translate(20,20 )" id="entity-habitweekday-2831ec23-5ca0-4da8-b7cf-ae740709a05f"><rect height="68" width="118.375" y="0" x="0" class="er entityBox"/><text style="dominant-baseline: middle; text-anchor: middle; font-size: 12px;" transform="translate(59.1875,12)" y="0" x="0" id="text-entity-habitweekday-2831ec23-5ca0-4da8-b7cf-ae740709a05f" class="er entityLabel">habit_week_day</text><rect height="22" width="37.74244689941406" y="24" x="0" class="er attributeBoxOdd"/><text style="dominant-baseline: middle; font-size: 10.2px;" transform="translate(5,35)" y="0" x="0" id="text-entity-habitweekday-2831ec23-5ca0-4da8-b7cf-ae740709a05f-attr-1-type" class="er entityLabel">String</text><rect height="22" width="57.598480224609375" y="24" x="37.74244689941406" class="er attributeBoxOdd"/><text style="dominant-baseline: middle; font-size: 10.2px;" transform="translate(42.74244689941406,35)" y="0" x="0" id="text-entity-habitweekday-2831ec23-5ca0-4da8-b7cf-ae740709a05f-attr-1-name" class="er entityLabel">id</text><rect height="22" width="23.034072875976562" y="24" x="95.34092712402344" class="er attributeBoxOdd"/><text style="dominant-baseline: middle; font-size: 10.2px;" transform="translate(100.34092712402344,35)" y="0" x="0" id="text-entity-habitweekday-2831ec23-5ca0-4da8-b7cf-ae740709a05f-attr-1-key" class="er entityLabel">PK</text><rect height="22" width="37.74244689941406" y="46" x="0" class="er attributeBoxEven"/><text style="dominant-baseline: middle; font-size: 10.2px;" transform="translate(5,57)" y="0" x="0" id="text-entity-habitweekday-2831ec23-5ca0-4da8-b7cf-ae740709a05f-attr-2-type" class="er entityLabel">Int</text><rect height="22" width="57.598480224609375" y="46" x="37.74244689941406" class="er attributeBoxEven"/><text style="dominant-baseline: middle; font-size: 10.2px;" transform="translate(42.74244689941406,57)" y="0" x="0" id="text-entity-habitweekday-2831ec23-5ca0-4da8-b7cf-ae740709a05f-attr-2-name" class="er entityLabel">week_day</text><rect height="22" width="23.034072875976562" y="46" x="95.34092712402344" class="er attributeBoxEven"/><text style="dominant-baseline: middle; font-size: 10.2px;" transform="translate(100.34092712402344,57)" y="0" x="0" id="text-entity-habitweekday-2831ec23-5ca0-4da8-b7cf-ae740709a05f-attr-2-key" class="er entityLabel"/></g><g transform="translate(282.34793853759766,31 )" id="entity-completeddayhabits-4c743eca-6f95-4a4d-980a-042104a89516"><rect height="46" width="151.3203125" y="0" x="0" class="er entityBox"/><text style="dominant-baseline: middle; text-anchor: middle; font-size: 12px;" transform="translate(75.66015625,12)" y="0" x="0" id="text-entity-completeddayhabits-4c743eca-6f95-4a4d-980a-042104a89516" class="er entityLabel">completed_day_habits</text><rect height="22" width="61.50538635253906" y="24" x="0" class="er attributeBoxOdd"/><text style="dominant-baseline: middle; font-size: 10.2px;" transform="translate(5,35)" y="0" x="0" id="text-entity-completeddayhabits-4c743eca-6f95-4a4d-980a-042104a89516-attr-1-type" class="er entityLabel">String</text><rect height="22" width="43.017913818359375" y="24" x="61.50538635253906" class="er attributeBoxOdd"/><text style="dominant-baseline: middle; font-size: 10.2px;" transform="translate(66.50538635253906,35)" y="0" x="0" id="text-entity-completeddayhabits-4c743eca-6f95-4a4d-980a-042104a89516-attr-1-name" class="er entityLabel">id</text><rect height="22" width="46.79701232910156" y="24" x="104.52330017089844" class="er attributeBoxOdd"/><text style="dominant-baseline: middle; font-size: 10.2px;" transform="translate(109.52330017089844,35)" y="0" x="0" id="text-entity-completeddayhabits-4c743eca-6f95-4a4d-980a-042104a89516-attr-1-key" class="er entityLabel">PK</text></g><rect height="14" width="27.96875" y="133.108642578125" x="70.1670913696289" class="er relationshipLabelBox"/><text style="text-anchor: middle; dominant-baseline: middle; font-size: 12px;" y="140.108642578125" x="84.1514663696289" id="rel1" class="er relationshipLabel">habit</text><rect height="14" width="19.990234375" y="127.78829956054688" x="390.9563293457031" class="er relationshipLabelBox"/><text style="text-anchor: middle; dominant-baseline: middle; font-size: 12px;" y="134.78829956054688" x="400.9514465332031" id="rel2" class="er relationshipLabel">day</text><rect height="14" width="27.96875" y="124.70863342285156" x="241.5570526123047" class="er relationshipLabelBox"/><text style="text-anchor: middle; dominant-baseline: middle; font-size: 12px;" y="131.70863342285156" x="255.5414276123047" id="rel3" class="er relationshipLabel">habit</text></svg>